<svg xmlns="http://www.w3.org/2000/svg" xmlns:xlink="http://www.w3.org/1999/xlink" width="500" zoomAndPan="magnify" viewBox="0 0 375 374.999991" height="500" preserveAspectRatio="xMidYMid meet" version="1.0"><defs><g/></defs><g fill="#000000" fill-opacity="1"><g transform="translate(61.510483, 337.399372)"><g><path d="M 2.234375 0 L 2.234375 -17.84375 L 8.296875 -17.84375 C 10.179688 -17.84375 11.753906 -17.441406 13.015625 -16.640625 C 14.285156 -15.847656 15.238281 -14.773438 15.875 -13.421875 C 16.507812 -12.078125 16.828125 -10.582031 16.828125 -8.9375 C 16.828125 -7.132812 16.476562 -5.5625 15.78125 -4.21875 C 15.09375 -2.882812 14.109375 -1.847656 12.828125 -1.109375 C 11.546875 -0.367188 10.035156 0 8.296875 0 Z M 15.078125 -8.9375 C 15.078125 -10.363281 14.8125 -11.628906 14.28125 -12.734375 C 13.75 -13.835938 12.984375 -14.703125 11.984375 -15.328125 C 10.984375 -15.960938 9.753906 -16.28125 8.296875 -16.28125 L 4 -16.28125 L 4 -1.5625 L 8.296875 -1.5625 C 9.765625 -1.5625 11 -1.882812 12 -2.53125 C 13.007812 -3.1875 13.773438 -4.070312 14.296875 -5.1875 C 14.816406 -6.300781 15.078125 -7.550781 15.078125 -8.9375 Z M 15.078125 -8.9375 "/></g></g></g><g fill="#000000" fill-opacity="1"><g transform="translate(79.474834, 337.399372)"><g><path d="M 1.890625 0 L 1.890625 -13.09375 L 3.59375 -13.09375 L 3.59375 0 Z M 1.890625 -15.828125 L 1.890625 -18.34375 L 3.59375 -18.34375 L 3.59375 -15.828125 Z M 1.890625 -15.828125 "/></g></g></g><g fill="#000000" fill-opacity="1"><g transform="translate(84.952079, 337.399372)"><g><path d="M 0.828125 -3.765625 C 0.828125 -4.585938 1.0625 -5.296875 1.53125 -5.890625 C 2 -6.484375 2.644531 -6.941406 3.46875 -7.265625 C 4.300781 -7.597656 5.265625 -7.765625 6.359375 -7.765625 C 6.992188 -7.765625 7.65625 -7.710938 8.34375 -7.609375 C 9.03125 -7.515625 9.640625 -7.363281 10.171875 -7.15625 L 10.171875 -8.265625 C 10.171875 -9.367188 9.84375 -10.25 9.1875 -10.90625 C 8.539062 -11.5625 7.640625 -11.890625 6.484375 -11.890625 C 5.773438 -11.890625 5.082031 -11.757812 4.40625 -11.5 C 3.726562 -11.238281 3.019531 -10.851562 2.28125 -10.34375 L 1.640625 -11.5625 C 2.492188 -12.144531 3.328125 -12.582031 4.140625 -12.875 C 4.960938 -13.164062 5.800781 -13.3125 6.65625 -13.3125 C 8.257812 -13.3125 9.53125 -12.847656 10.46875 -11.921875 C 11.414062 -11.003906 11.890625 -9.734375 11.890625 -8.109375 L 11.890625 -2.0625 C 11.890625 -1.820312 11.9375 -1.644531 12.03125 -1.53125 C 12.132812 -1.425781 12.296875 -1.367188 12.515625 -1.359375 L 12.515625 0 C 12.328125 0.0195312 12.164062 0.0351562 12.03125 0.046875 C 11.894531 0.0664062 11.796875 0.0664062 11.734375 0.046875 C 11.316406 0.0351562 11 -0.09375 10.78125 -0.34375 C 10.5625 -0.601562 10.441406 -0.875 10.421875 -1.15625 L 10.40625 -2.109375 C 9.8125 -1.359375 9.046875 -0.773438 8.109375 -0.359375 C 7.171875 0.046875 6.21875 0.25 5.25 0.25 C 4.414062 0.25 3.65625 0.0703125 2.96875 -0.28125 C 2.289062 -0.644531 1.765625 -1.128906 1.390625 -1.734375 C 1.015625 -2.347656 0.828125 -3.023438 0.828125 -3.765625 Z M 9.59375 -2.765625 C 9.78125 -2.992188 9.921875 -3.21875 10.015625 -3.4375 C 10.117188 -3.65625 10.171875 -3.847656 10.171875 -4.015625 L 10.171875 -5.921875 C 9.609375 -6.140625 9.019531 -6.304688 8.40625 -6.421875 C 7.789062 -6.546875 7.175781 -6.609375 6.5625 -6.609375 C 5.332031 -6.609375 4.34375 -6.363281 3.59375 -5.875 C 2.84375 -5.394531 2.46875 -4.734375 2.46875 -3.890625 C 2.46875 -3.410156 2.59375 -2.957031 2.84375 -2.53125 C 3.09375 -2.101562 3.457031 -1.75 3.9375 -1.46875 C 4.425781 -1.195312 5 -1.0625 5.65625 -1.0625 C 6.476562 -1.0625 7.242188 -1.21875 7.953125 -1.53125 C 8.660156 -1.851562 9.207031 -2.265625 9.59375 -2.765625 Z M 9.59375 -2.765625 "/></g></g></g><g fill="#000000" fill-opacity="1"><g transform="translate(98.645186, 337.399372)"><g><path d="M 7.140625 0.171875 C 6.242188 0.171875 5.421875 -0.0078125 4.671875 -0.375 C 3.921875 -0.738281 3.269531 -1.234375 2.71875 -1.859375 C 2.175781 -2.492188 1.753906 -3.210938 1.453125 -4.015625 C 1.148438 -4.816406 1 -5.644531 1 -6.5 C 1 -7.425781 1.144531 -8.296875 1.4375 -9.109375 C 1.738281 -9.921875 2.160156 -10.644531 2.703125 -11.28125 C 3.242188 -11.914062 3.882812 -12.410156 4.625 -12.765625 C 5.363281 -13.128906 6.179688 -13.3125 7.078125 -13.3125 C 8.203125 -13.3125 9.175781 -13.023438 10 -12.453125 C 10.832031 -11.890625 11.535156 -11.1875 12.109375 -10.34375 L 12.109375 -13.09375 L 13.640625 -13.09375 L 13.640625 0.046875 C 13.640625 1.253906 13.347656 2.269531 12.765625 3.09375 C 12.191406 3.925781 11.414062 4.550781 10.4375 4.96875 C 9.457031 5.394531 8.390625 5.609375 7.234375 5.609375 C 5.742188 5.609375 4.535156 5.335938 3.609375 4.796875 C 2.691406 4.265625 1.941406 3.546875 1.359375 2.640625 L 2.40625 1.8125 C 2.925781 2.632812 3.617188 3.242188 4.484375 3.640625 C 5.347656 4.046875 6.265625 4.25 7.234375 4.25 C 8.085938 4.25 8.867188 4.09375 9.578125 3.78125 C 10.296875 3.46875 10.867188 3 11.296875 2.375 C 11.722656 1.757812 11.9375 0.984375 11.9375 0.046875 L 11.9375 -2.53125 C 11.4375 -1.71875 10.75 -1.0625 9.875 -0.5625 C 9 -0.0703125 8.085938 0.171875 7.140625 0.171875 Z M 7.609375 -1.25 C 8.128906 -1.25 8.628906 -1.34375 9.109375 -1.53125 C 9.585938 -1.71875 10.023438 -1.960938 10.421875 -2.265625 C 10.828125 -2.578125 11.160156 -2.925781 11.421875 -3.3125 C 11.691406 -3.695312 11.863281 -4.09375 11.9375 -4.5 L 11.9375 -8.546875 C 11.6875 -9.179688 11.328125 -9.742188 10.859375 -10.234375 C 10.390625 -10.734375 9.851562 -11.117188 9.25 -11.390625 C 8.65625 -11.671875 8.039062 -11.8125 7.40625 -11.8125 C 6.675781 -11.8125 6.019531 -11.65625 5.4375 -11.34375 C 4.863281 -11.03125 4.378906 -10.617188 3.984375 -10.109375 C 3.585938 -9.597656 3.28125 -9.023438 3.0625 -8.390625 C 2.84375 -7.753906 2.734375 -7.117188 2.734375 -6.484375 C 2.734375 -5.773438 2.859375 -5.109375 3.109375 -4.484375 C 3.367188 -3.859375 3.71875 -3.296875 4.15625 -2.796875 C 4.601562 -2.304688 5.125 -1.925781 5.71875 -1.65625 C 6.3125 -1.382812 6.941406 -1.25 7.609375 -1.25 Z M 7.609375 -1.25 "/></g></g></g><g fill="#000000" fill-opacity="1"><g transform="translate(114.172414, 337.399372)"><g><path d="M 12.890625 0 L 11.1875 0 L 11.1875 -7.3125 C 11.1875 -8.851562 10.957031 -9.976562 10.5 -10.6875 C 10.050781 -11.40625 9.335938 -11.765625 8.359375 -11.765625 C 7.691406 -11.765625 7.03125 -11.597656 6.375 -11.265625 C 5.726562 -10.941406 5.15625 -10.5 4.65625 -9.9375 C 4.164062 -9.375 3.8125 -8.734375 3.59375 -8.015625 L 3.59375 0 L 1.890625 0 L 1.890625 -13.09375 L 3.4375 -13.09375 L 3.4375 -10.125 C 3.789062 -10.757812 4.25 -11.316406 4.8125 -11.796875 C 5.382812 -12.273438 6.03125 -12.644531 6.75 -12.90625 C 7.476562 -13.175781 8.226562 -13.3125 9 -13.3125 C 9.71875 -13.3125 10.328125 -13.175781 10.828125 -12.90625 C 11.328125 -12.644531 11.726562 -12.265625 12.03125 -11.765625 C 12.332031 -11.273438 12.550781 -10.679688 12.6875 -9.984375 C 12.820312 -9.285156 12.890625 -8.507812 12.890625 -7.65625 Z M 12.890625 0 "/></g></g></g><g fill="#000000" fill-opacity="1"><g transform="translate(128.820267, 337.399372)"><g><path d="M 7.46875 0.25 C 6.53125 0.25 5.660156 0.0703125 4.859375 -0.28125 C 4.066406 -0.644531 3.378906 -1.140625 2.796875 -1.765625 C 2.222656 -2.398438 1.773438 -3.125 1.453125 -3.9375 C 1.140625 -4.75 0.984375 -5.601562 0.984375 -6.5 C 0.984375 -7.445312 1.140625 -8.320312 1.453125 -9.125 C 1.773438 -9.9375 2.226562 -10.65625 2.8125 -11.28125 C 3.394531 -11.914062 4.082031 -12.410156 4.875 -12.765625 C 5.675781 -13.128906 6.546875 -13.3125 7.484375 -13.3125 C 8.421875 -13.3125 9.28125 -13.128906 10.0625 -12.765625 C 10.851562 -12.410156 11.539062 -11.914062 12.125 -11.28125 C 12.71875 -10.65625 13.171875 -9.9375 13.484375 -9.125 C 13.804688 -8.320312 13.96875 -7.445312 13.96875 -6.5 C 13.96875 -5.601562 13.804688 -4.75 13.484375 -3.9375 C 13.171875 -3.125 12.722656 -2.398438 12.140625 -1.765625 C 11.566406 -1.140625 10.878906 -0.644531 10.078125 -0.28125 C 9.285156 0.0703125 8.414062 0.25 7.46875 0.25 Z M 2.71875 -6.484375 C 2.71875 -5.515625 2.929688 -4.628906 3.359375 -3.828125 C 3.785156 -3.035156 4.359375 -2.40625 5.078125 -1.9375 C 5.796875 -1.476562 6.59375 -1.25 7.46875 -1.25 C 8.332031 -1.25 9.125 -1.484375 9.84375 -1.953125 C 10.5625 -2.421875 11.140625 -3.0625 11.578125 -3.875 C 12.015625 -4.6875 12.234375 -5.570312 12.234375 -6.53125 C 12.234375 -7.5 12.015625 -8.382812 11.578125 -9.1875 C 11.140625 -10 10.5625 -10.640625 9.84375 -11.109375 C 9.125 -11.578125 8.332031 -11.8125 7.46875 -11.8125 C 6.59375 -11.8125 5.796875 -11.566406 5.078125 -11.078125 C 4.367188 -10.585938 3.796875 -9.945312 3.359375 -9.15625 C 2.929688 -8.363281 2.71875 -7.472656 2.71875 -6.484375 Z M 2.71875 -6.484375 "/></g></g></g><g fill="#000000" fill-opacity="1"><g transform="translate(143.769626, 337.399372)"><g><path d="M 6.1875 0.25 C 5.113281 0.25 4.113281 0.078125 3.1875 -0.265625 C 2.269531 -0.617188 1.472656 -1.160156 0.796875 -1.890625 L 1.5 -3.09375 C 2.238281 -2.40625 2.976562 -1.90625 3.71875 -1.59375 C 4.46875 -1.28125 5.265625 -1.125 6.109375 -1.125 C 7.128906 -1.125 7.957031 -1.328125 8.59375 -1.734375 C 9.226562 -2.148438 9.546875 -2.742188 9.546875 -3.515625 C 9.546875 -4.035156 9.390625 -4.429688 9.078125 -4.703125 C 8.773438 -4.984375 8.332031 -5.210938 7.75 -5.390625 C 7.175781 -5.566406 6.484375 -5.753906 5.671875 -5.953125 C 4.773438 -6.203125 4.019531 -6.460938 3.40625 -6.734375 C 2.789062 -7.015625 2.328125 -7.367188 2.015625 -7.796875 C 1.710938 -8.222656 1.5625 -8.78125 1.5625 -9.46875 C 1.5625 -10.320312 1.773438 -11.03125 2.203125 -11.59375 C 2.628906 -12.15625 3.210938 -12.582031 3.953125 -12.875 C 4.703125 -13.164062 5.535156 -13.3125 6.453125 -13.3125 C 7.460938 -13.3125 8.351562 -13.148438 9.125 -12.828125 C 9.894531 -12.515625 10.519531 -12.070312 11 -11.5 L 10.171875 -10.34375 C 9.703125 -10.882812 9.144531 -11.285156 8.5 -11.546875 C 7.851562 -11.804688 7.140625 -11.9375 6.359375 -11.9375 C 5.816406 -11.9375 5.300781 -11.863281 4.8125 -11.71875 C 4.332031 -11.570312 3.9375 -11.335938 3.625 -11.015625 C 3.320312 -10.691406 3.171875 -10.242188 3.171875 -9.671875 C 3.171875 -9.203125 3.285156 -8.835938 3.515625 -8.578125 C 3.753906 -8.316406 4.109375 -8.097656 4.578125 -7.921875 C 5.046875 -7.742188 5.625 -7.554688 6.3125 -7.359375 C 7.289062 -7.085938 8.148438 -6.8125 8.890625 -6.53125 C 9.628906 -6.257812 10.195312 -5.90625 10.59375 -5.46875 C 11 -5.039062 11.203125 -4.429688 11.203125 -3.640625 C 11.203125 -2.421875 10.738281 -1.46875 9.8125 -0.78125 C 8.894531 -0.09375 7.6875 0.25 6.1875 0.25 Z M 6.1875 0.25 "/></g></g></g><g fill="#000000" fill-opacity="1"><g transform="translate(155.904986, 337.399372)"><g><path d="M 8.171875 -0.625 C 8.035156 -0.570312 7.820312 -0.476562 7.53125 -0.34375 C 7.25 -0.21875 6.90625 -0.101562 6.5 0 C 6.101562 0.101562 5.671875 0.15625 5.203125 0.15625 C 4.710938 0.15625 4.253906 0.0625 3.828125 -0.125 C 3.398438 -0.3125 3.0625 -0.59375 2.8125 -0.96875 C 2.5625 -1.34375 2.4375 -1.804688 2.4375 -2.359375 L 2.4375 -11.734375 L 0.625 -11.734375 L 0.625 -13.09375 L 2.4375 -13.09375 L 2.4375 -17.515625 L 4.140625 -17.515625 L 4.140625 -13.09375 L 7.15625 -13.09375 L 7.15625 -11.734375 L 4.140625 -11.734375 L 4.140625 -2.84375 C 4.179688 -2.375 4.351562 -2.019531 4.65625 -1.78125 C 4.96875 -1.550781 5.328125 -1.4375 5.734375 -1.4375 C 6.203125 -1.4375 6.628906 -1.515625 7.015625 -1.671875 C 7.398438 -1.828125 7.632812 -1.941406 7.71875 -2.015625 Z M 8.171875 -0.625 "/></g></g></g><g fill="#000000" fill-opacity="1"><g transform="translate(164.321851, 337.399372)"><g><path d="M 1.890625 0 L 1.890625 -13.09375 L 3.59375 -13.09375 L 3.59375 0 Z M 1.890625 -15.828125 L 1.890625 -18.34375 L 3.59375 -18.34375 L 3.59375 -15.828125 Z M 1.890625 -15.828125 "/></g></g></g><g fill="#000000" fill-opacity="1"><g transform="translate(169.799096, 337.399372)"><g><path d="M 7.5625 0.25 C 6.601562 0.25 5.726562 0.0703125 4.9375 -0.28125 C 4.144531 -0.644531 3.445312 -1.144531 2.84375 -1.78125 C 2.25 -2.414062 1.789062 -3.144531 1.46875 -3.96875 C 1.144531 -4.789062 0.984375 -5.660156 0.984375 -6.578125 C 0.984375 -7.816406 1.257812 -8.945312 1.8125 -9.96875 C 2.363281 -10.988281 3.132812 -11.800781 4.125 -12.40625 C 5.113281 -13.007812 6.25 -13.3125 7.53125 -13.3125 C 8.757812 -13.3125 9.84375 -13.03125 10.78125 -12.46875 C 11.71875 -11.914062 12.410156 -11.160156 12.859375 -10.203125 L 11.203125 -9.671875 C 10.835938 -10.335938 10.320312 -10.859375 9.65625 -11.234375 C 9 -11.617188 8.269531 -11.8125 7.46875 -11.8125 C 6.59375 -11.8125 5.796875 -11.582031 5.078125 -11.125 C 4.359375 -10.675781 3.785156 -10.054688 3.359375 -9.265625 C 2.929688 -8.484375 2.71875 -7.585938 2.71875 -6.578125 C 2.71875 -5.585938 2.929688 -4.691406 3.359375 -3.890625 C 3.796875 -3.085938 4.375 -2.445312 5.09375 -1.96875 C 5.820312 -1.488281 6.617188 -1.25 7.484375 -1.25 C 8.054688 -1.25 8.601562 -1.347656 9.125 -1.546875 C 9.65625 -1.753906 10.117188 -2.03125 10.515625 -2.375 C 10.910156 -2.71875 11.175781 -3.09375 11.3125 -3.5 L 12.984375 -2.984375 C 12.753906 -2.367188 12.363281 -1.8125 11.8125 -1.3125 C 11.269531 -0.820312 10.632812 -0.4375 9.90625 -0.15625 C 9.175781 0.113281 8.394531 0.25 7.5625 0.25 Z M 7.5625 0.25 "/></g></g></g><g fill="#000000" fill-opacity="1"><g transform="translate(183.592705, 337.399372)"><g/></g></g><g fill="#000000" fill-opacity="1"><g transform="translate(189.999576, 337.399372)"><g><path d="M 1.890625 0 L 1.890625 -13.09375 L 3.59375 -13.09375 L 3.59375 0 Z M 1.890625 -15.828125 L 1.890625 -18.34375 L 3.59375 -18.34375 L 3.59375 -15.828125 Z M 1.890625 -15.828125 "/></g></g></g><g fill="#000000" fill-opacity="1"><g transform="translate(195.476821, 337.399372)"><g><path d="M 21.359375 0 L 19.640625 0 L 19.640625 -7.3125 C 19.640625 -8.832031 19.394531 -9.953125 18.90625 -10.671875 C 18.425781 -11.398438 17.710938 -11.765625 16.765625 -11.765625 C 15.773438 -11.765625 14.890625 -11.410156 14.109375 -10.703125 C 13.328125 -9.992188 12.78125 -9.085938 12.46875 -7.984375 L 12.46875 0 L 10.75 0 L 10.75 -7.3125 C 10.75 -8.851562 10.515625 -9.976562 10.046875 -10.6875 C 9.578125 -11.40625 8.859375 -11.765625 7.890625 -11.765625 C 6.921875 -11.765625 6.039062 -11.421875 5.25 -10.734375 C 4.457031 -10.046875 3.90625 -9.140625 3.59375 -8.015625 L 3.59375 0 L 1.890625 0 L 1.890625 -13.09375 L 3.4375 -13.09375 L 3.4375 -10.125 C 3.988281 -11.144531 4.695312 -11.929688 5.5625 -12.484375 C 6.425781 -13.035156 7.382812 -13.3125 8.4375 -13.3125 C 9.53125 -13.3125 10.410156 -13 11.078125 -12.375 C 11.742188 -11.757812 12.15625 -10.953125 12.3125 -9.953125 C 12.914062 -11.054688 13.640625 -11.890625 14.484375 -12.453125 C 15.328125 -13.023438 16.285156 -13.3125 17.359375 -13.3125 C 18.097656 -13.3125 18.722656 -13.175781 19.234375 -12.90625 C 19.742188 -12.644531 20.148438 -12.265625 20.453125 -11.765625 C 20.765625 -11.273438 20.992188 -10.679688 21.140625 -9.984375 C 21.285156 -9.285156 21.359375 -8.507812 21.359375 -7.65625 Z M 21.359375 0 "/></g></g></g><g fill="#000000" fill-opacity="1"><g transform="translate(218.566659, 337.399372)"><g><path d="M 21.359375 0 L 19.640625 0 L 19.640625 -7.3125 C 19.640625 -8.832031 19.394531 -9.953125 18.90625 -10.671875 C 18.425781 -11.398438 17.710938 -11.765625 16.765625 -11.765625 C 15.773438 -11.765625 14.890625 -11.410156 14.109375 -10.703125 C 13.328125 -9.992188 12.78125 -9.085938 12.46875 -7.984375 L 12.46875 0 L 10.75 0 L 10.75 -7.3125 C 10.75 -8.851562 10.515625 -9.976562 10.046875 -10.6875 C 9.578125 -11.40625 8.859375 -11.765625 7.890625 -11.765625 C 6.921875 -11.765625 6.039062 -11.421875 5.25 -10.734375 C 4.457031 -10.046875 3.90625 -9.140625 3.59375 -8.015625 L 3.59375 0 L 1.890625 0 L 1.890625 -13.09375 L 3.4375 -13.09375 L 3.4375 -10.125 C 3.988281 -11.144531 4.695312 -11.929688 5.5625 -12.484375 C 6.425781 -13.035156 7.382812 -13.3125 8.4375 -13.3125 C 9.53125 -13.3125 10.410156 -13 11.078125 -12.375 C 11.742188 -11.757812 12.15625 -10.953125 12.3125 -9.953125 C 12.914062 -11.054688 13.640625 -11.890625 14.484375 -12.453125 C 15.328125 -13.023438 16.285156 -13.3125 17.359375 -13.3125 C 18.097656 -13.3125 18.722656 -13.175781 19.234375 -12.90625 C 19.742188 -12.644531 20.148438 -12.265625 20.453125 -11.765625 C 20.765625 -11.273438 20.992188 -10.679688 21.140625 -9.984375 C 21.285156 -9.285156 21.359375 -8.507812 21.359375 -7.65625 Z M 21.359375 0 "/></g></g></g><g fill="#000000" fill-opacity="1"><g transform="translate(241.656498, 337.399372)"><g><path d="M 7.46875 0.25 C 6.53125 0.25 5.660156 0.0703125 4.859375 -0.28125 C 4.066406 -0.644531 3.378906 -1.140625 2.796875 -1.765625 C 2.222656 -2.398438 1.773438 -3.125 1.453125 -3.9375 C 1.140625 -4.75 0.984375 -5.601562 0.984375 -6.5 C 0.984375 -7.445312 1.140625 -8.320312 1.453125 -9.125 C 1.773438 -9.9375 2.226562 -10.65625 2.8125 -11.28125 C 3.394531 -11.914062 4.082031 -12.410156 4.875 -12.765625 C 5.675781 -13.128906 6.546875 -13.3125 7.484375 -13.3125 C 8.421875 -13.3125 9.28125 -13.128906 10.0625 -12.765625 C 10.851562 -12.410156 11.539062 -11.914062 12.125 -11.28125 C 12.71875 -10.65625 13.171875 -9.9375 13.484375 -9.125 C 13.804688 -8.320312 13.96875 -7.445312 13.96875 -6.5 C 13.96875 -5.601562 13.804688 -4.75 13.484375 -3.9375 C 13.171875 -3.125 12.722656 -2.398438 12.140625 -1.765625 C 11.566406 -1.140625 10.878906 -0.644531 10.078125 -0.28125 C 9.285156 0.0703125 8.414062 0.25 7.46875 0.25 Z M 2.71875 -6.484375 C 2.71875 -5.515625 2.929688 -4.628906 3.359375 -3.828125 C 3.785156 -3.035156 4.359375 -2.40625 5.078125 -1.9375 C 5.796875 -1.476562 6.59375 -1.25 7.46875 -1.25 C 8.332031 -1.25 9.125 -1.484375 9.84375 -1.953125 C 10.5625 -2.421875 11.140625 -3.0625 11.578125 -3.875 C 12.015625 -4.6875 12.234375 -5.570312 12.234375 -6.53125 C 12.234375 -7.5 12.015625 -8.382812 11.578125 -9.1875 C 11.140625 -10 10.5625 -10.640625 9.84375 -11.109375 C 9.125 -11.578125 8.332031 -11.8125 7.46875 -11.8125 C 6.59375 -11.8125 5.796875 -11.566406 5.078125 -11.078125 C 4.367188 -10.585938 3.796875 -9.945312 3.359375 -9.15625 C 2.929688 -8.363281 2.71875 -7.472656 2.71875 -6.484375 Z M 2.71875 -6.484375 "/></g></g></g><g fill="#000000" fill-opacity="1"><g transform="translate(256.605868, 337.399372)"><g><path d="M 8.296875 0.25 C 7.273438 0.25 6.328125 -0.0078125 5.453125 -0.53125 C 4.578125 -1.0625 3.898438 -1.726562 3.421875 -2.53125 L 3.421875 0 L 1.890625 0 L 1.890625 -18.34375 L 3.59375 -18.34375 L 3.59375 -10.34375 C 4.175781 -11.238281 4.878906 -11.957031 5.703125 -12.5 C 6.523438 -13.039062 7.476562 -13.3125 8.5625 -13.3125 C 9.488281 -13.3125 10.316406 -13.117188 11.046875 -12.734375 C 11.773438 -12.347656 12.394531 -11.832031 12.90625 -11.1875 C 13.425781 -10.539062 13.820312 -9.8125 14.09375 -9 C 14.363281 -8.1875 14.5 -7.351562 14.5 -6.5 C 14.5 -5.582031 14.34375 -4.722656 14.03125 -3.921875 C 13.71875 -3.117188 13.273438 -2.398438 12.703125 -1.765625 C 12.140625 -1.140625 11.484375 -0.644531 10.734375 -0.28125 C 9.992188 0.0703125 9.179688 0.25 8.296875 0.25 Z M 7.890625 -1.25 C 8.585938 -1.25 9.238281 -1.390625 9.84375 -1.671875 C 10.445312 -1.960938 10.96875 -2.359375 11.40625 -2.859375 C 11.84375 -3.367188 12.175781 -3.9375 12.40625 -4.5625 C 12.644531 -5.1875 12.765625 -5.832031 12.765625 -6.5 C 12.765625 -7.425781 12.566406 -8.296875 12.171875 -9.109375 C 11.773438 -9.921875 11.226562 -10.570312 10.53125 -11.0625 C 9.84375 -11.5625 9.03125 -11.8125 8.09375 -11.8125 C 7.414062 -11.8125 6.789062 -11.660156 6.21875 -11.359375 C 5.644531 -11.054688 5.132812 -10.65625 4.6875 -10.15625 C 4.238281 -9.664062 3.875 -9.128906 3.59375 -8.546875 L 3.59375 -4.46875 C 3.65625 -4.019531 3.828125 -3.597656 4.109375 -3.203125 C 4.398438 -2.804688 4.757812 -2.46875 5.1875 -2.1875 C 5.613281 -1.90625 6.0625 -1.675781 6.53125 -1.5 C 7 -1.332031 7.453125 -1.25 7.890625 -1.25 Z M 7.890625 -1.25 "/></g></g></g><g fill="#000000" fill-opacity="1"><g transform="translate(272.107988, 337.399372)"><g><path d="M 1.890625 0 L 1.890625 -13.09375 L 3.59375 -13.09375 L 3.59375 0 Z M 1.890625 -15.828125 L 1.890625 -18.34375 L 3.59375 -18.34375 L 3.59375 -15.828125 Z M 1.890625 -15.828125 "/></g></g></g><g fill="#000000" fill-opacity="1"><g transform="translate(277.585222, 337.399372)"><g><path d="M 1.953125 -18.34375 L 3.671875 -18.34375 L 3.671875 -2.96875 C 3.671875 -2.3125 3.785156 -1.878906 4.015625 -1.671875 C 4.253906 -1.472656 4.539062 -1.375 4.875 -1.375 C 5.175781 -1.375 5.476562 -1.40625 5.78125 -1.46875 C 6.082031 -1.539062 6.34375 -1.613281 6.5625 -1.6875 L 6.859375 -0.296875 C 6.535156 -0.160156 6.144531 -0.0507812 5.6875 0.03125 C 5.226562 0.113281 4.832031 0.15625 4.5 0.15625 C 3.726562 0.15625 3.109375 -0.0664062 2.640625 -0.515625 C 2.179688 -0.972656 1.953125 -1.597656 1.953125 -2.390625 Z M 1.953125 -18.34375 "/></g></g></g><g fill="#000000" fill-opacity="1"><g transform="translate(284.419221, 337.399372)"><g><path d="M 1.890625 0 L 1.890625 -13.09375 L 3.59375 -13.09375 L 3.59375 0 Z M 1.890625 -15.828125 L 1.890625 -18.34375 L 3.59375 -18.34375 L 3.59375 -15.828125 Z M 1.890625 -15.828125 "/></g></g></g><g fill="#000000" fill-opacity="1"><g transform="translate(289.896454, 337.399372)"><g><path d="M 7.53125 0.25 C 6.59375 0.25 5.722656 0.0703125 4.921875 -0.28125 C 4.117188 -0.644531 3.421875 -1.140625 2.828125 -1.765625 C 2.242188 -2.398438 1.789062 -3.125 1.46875 -3.9375 C 1.144531 -4.757812 0.984375 -5.640625 0.984375 -6.578125 C 0.984375 -7.804688 1.257812 -8.929688 1.8125 -9.953125 C 2.375 -10.972656 3.148438 -11.785156 4.140625 -12.390625 C 5.128906 -13.003906 6.253906 -13.3125 7.515625 -13.3125 C 8.804688 -13.3125 9.929688 -13 10.890625 -12.375 C 11.859375 -11.757812 12.617188 -10.945312 13.171875 -9.9375 C 13.722656 -8.925781 14 -7.816406 14 -6.609375 C 14 -6.472656 14 -6.34375 14 -6.21875 C 14 -6.09375 13.988281 -5.992188 13.96875 -5.921875 L 2.765625 -5.921875 C 2.847656 -4.984375 3.109375 -4.148438 3.546875 -3.421875 C 3.992188 -2.703125 4.570312 -2.128906 5.28125 -1.703125 C 6 -1.273438 6.773438 -1.0625 7.609375 -1.0625 C 8.460938 -1.0625 9.269531 -1.273438 10.03125 -1.703125 C 10.800781 -2.140625 11.335938 -2.710938 11.640625 -3.421875 L 13.109375 -3.015625 C 12.847656 -2.390625 12.441406 -1.828125 11.890625 -1.328125 C 11.335938 -0.828125 10.6875 -0.4375 9.9375 -0.15625 C 9.1875 0.113281 8.382812 0.25 7.53125 0.25 Z M 2.71875 -7.15625 L 12.390625 -7.15625 C 12.316406 -8.113281 12.054688 -8.953125 11.609375 -9.671875 C 11.171875 -10.390625 10.59375 -10.953125 9.875 -11.359375 C 9.164062 -11.773438 8.382812 -11.984375 7.53125 -11.984375 C 6.675781 -11.984375 5.894531 -11.773438 5.1875 -11.359375 C 4.488281 -10.953125 3.914062 -10.382812 3.46875 -9.65625 C 3.03125 -8.925781 2.78125 -8.09375 2.71875 -7.15625 Z M 2.71875 -7.15625 "/></g></g></g><g fill="#000000" fill-opacity="1"><g transform="translate(304.644821, 337.399372)"><g><path d="M 8.421875 -11.578125 C 7.273438 -11.546875 6.269531 -11.226562 5.40625 -10.625 C 4.550781 -10.019531 3.945312 -9.191406 3.59375 -8.140625 L 3.59375 0 L 1.890625 0 L 1.890625 -13.09375 L 3.5 -13.09375 L 3.5 -9.953125 C 3.945312 -10.867188 4.539062 -11.613281 5.28125 -12.1875 C 6.03125 -12.757812 6.820312 -13.078125 7.65625 -13.140625 C 7.832031 -13.160156 7.984375 -13.171875 8.109375 -13.171875 C 8.234375 -13.171875 8.335938 -13.160156 8.421875 -13.140625 Z M 8.421875 -11.578125 "/></g></g></g><path stroke-linecap="butt" transform="matrix(0.75, 0, 0, 0.75, 85.160485, 20.198559)" fill="none" stroke-linejoin="miter" d="M -0.000438744 7.50088 L 20.827688 7.50088 " stroke="#000000" stroke-width="15" stroke-opacity="1" stroke-miterlimit="4"/><path stroke-linecap="butt" transform="matrix(0.75, 0, 0, 0.75, 123.625866, 20.212339)" fill="none" stroke-linejoin="miter" d="M -0.00115464 7.498131 L 146.769688 7.498131 " stroke="#000000" stroke-width="15" stroke-opacity="1" stroke-miterlimit="4"/><path stroke-linecap="butt" transform="matrix(0.75, 0, 0, 0.75, 260.912887, 20.372763)" fill="none" stroke-linejoin="miter" d="M 0.00156791 7.497774 L 16.991152 7.497774 " stroke="#000000" stroke-width="15" stroke-opacity="1" stroke-miterlimit="4"/><path stroke-linecap="butt" transform="matrix(0, 0.75, -0.75, 0, 279.279742, 20.241027)" fill="none" stroke-linejoin="miter" d="M 0.00154799 7.49799 L 146.881766 7.49799 " stroke="#000000" stroke-width="15" stroke-opacity="1" stroke-miterlimit="4"/><path stroke-linecap="butt" transform="matrix(0, 0.75, -0.75, 0, 239.324418, 122.47497)" fill="none" stroke-linejoin="miter" d="M 0.00212286 7.500266 L 93.663587 7.500266 " stroke="#000000" stroke-width="15" stroke-opacity="1" stroke-miterlimit="4"/><path stroke-linecap="butt" transform="matrix(0.75, 0, 0, 0.75, 142.83565, 181.244256)" fill="none" stroke-linejoin="miter" d="M 0.000383973 7.502451 L 121.156642 7.502451 " stroke="#000000" stroke-width="15" stroke-opacity="1" stroke-miterlimit="4"/><path stroke-linecap="butt" transform="matrix(0, -0.75, 0.75, 0, 137.210122, 192.871804)" fill="none" stroke-linejoin="miter" d="M 0.00094718 7.501088 L 128.360331 7.501088 " stroke="#000000" stroke-width="15" stroke-opacity="1" stroke-miterlimit="4"/><path stroke-linecap="butt" transform="matrix(0, -0.75, 0.75, 0, 137.20728, 59.658944)" fill="none" stroke-linejoin="miter" d="M -0.00161622 7.499668 L 45.118178 7.499668 " stroke="#000000" stroke-width="15" stroke-opacity="1" stroke-miterlimit="4"/><path stroke-linecap="butt" transform="matrix(0, 0.75, -0.75, 0, 96.419113, 26.001489)" fill="none" stroke-linejoin="miter" d="M -0.00198578 7.501526 L 139.50844 7.501526 " stroke="#000000" stroke-width="15" stroke-opacity="1" stroke-miterlimit="4"/><path stroke-linecap="butt" transform="matrix(0.75, 0, 0, 0.75, 85.160485, 121.821724)" fill="none" stroke-linejoin="miter" d="M -0.000438744 7.498118 L 77.108941 7.498118 " stroke="#000000" stroke-width="15" stroke-opacity="1" stroke-miterlimit="4"/><path stroke-linecap="butt" transform="matrix(0.75, 0, 0, 0.75, 260.912887, 119.072459)" fill="none" stroke-linejoin="miter" d="M 0.00156791 7.502346 L 16.991152 7.502346 " stroke="#000000" stroke-width="15" stroke-opacity="1" stroke-miterlimit="4"/><g fill="#4d6948" fill-opacity="1"><g transform="translate(43.088858, 291.899896)"><g><path d="M 38.625 0 L 18.90625 -22.796875 L 18.90625 0 L 5.046875 0 L 5.046875 -46.953125 L 18.21875 -46.953125 L 37.953125 -23.8125 L 37.953125 -46.953125 L 51.796875 -46.953125 L 51.796875 0 Z M 38.625 0 "/></g></g></g><g fill="#54894a" fill-opacity="1"><g transform="translate(95.254532, 291.899896)"><g><path d="M 28.390625 -47.78125 C 36.492188 -47.78125 42.75 -45.707031 47.15625 -41.5625 C 51.570312 -37.425781 53.78125 -31.398438 53.78125 -23.484375 C 53.78125 -15.566406 51.570312 -9.535156 47.15625 -5.390625 C 42.75 -1.253906 36.492188 0.8125 28.390625 0.8125 C 20.296875 0.8125 14.050781 -1.242188 9.65625 -5.359375 C 5.269531 -9.472656 3.078125 -15.515625 3.078125 -23.484375 C 3.078125 -31.441406 5.269531 -37.476562 9.65625 -41.59375 C 14.050781 -45.71875 20.296875 -47.78125 28.390625 -47.78125 Z M 28.390625 -36.515625 C 25.160156 -36.515625 22.703125 -35.535156 21.015625 -33.578125 C 19.335938 -31.617188 18.5 -28.976562 18.5 -25.65625 L 18.5 -21.296875 C 18.5 -17.972656 19.335938 -15.332031 21.015625 -13.375 C 22.703125 -11.414062 25.160156 -10.4375 28.390625 -10.4375 C 31.617188 -10.4375 34.085938 -11.414062 35.796875 -13.375 C 37.503906 -15.332031 38.359375 -17.972656 38.359375 -21.296875 L 38.359375 -25.65625 C 38.359375 -28.976562 37.503906 -31.617188 35.796875 -33.578125 C 34.085938 -35.535156 31.617188 -36.515625 28.390625 -36.515625 Z M 28.390625 -36.515625 "/></g></g></g><g fill="#579d4a" fill-opacity="1"><g transform="translate(147.186528, 291.899896)"><g><path d="M 17.8125 0 L 1.15625 -46.953125 L 17.265625 -46.953125 L 26.6875 -15.5625 L 26.953125 -15.5625 L 36.453125 -46.953125 L 51.875 -46.953125 L 35.28125 0 Z M 17.8125 0 "/></g></g></g><g fill="#58a848" fill-opacity="1"><g transform="translate(196.601476, 291.899896)"><g><path d="M 5.046875 -46.953125 L 45.65625 -46.953125 L 45.65625 -35.6875 L 20.140625 -35.6875 L 20.140625 -29.21875 L 41.96875 -29.21875 L 41.96875 -18.421875 L 20.140625 -18.421875 L 20.140625 -11.265625 L 46.140625 -11.265625 L 46.140625 0 L 5.046875 0 Z M 5.046875 -46.953125 "/></g></g></g><g fill="#5ab647" fill-opacity="1"><g transform="translate(241.616473, 291.899896)"><g><path d="M 36.859375 -46.953125 L 55.5625 -46.953125 L 38.703125 -27.640625 L 55.890625 0 L 38.078125 0 L 28.328125 -17.203125 L 20.140625 -10.515625 L 20.140625 0 L 5.046875 0 L 5.046875 -46.953125 L 20.140625 -46.953125 L 20.140625 -26.890625 Z M 36.859375 -46.953125 "/></g></g></g><g fill="#59c243" fill-opacity="1"><g transform="translate(293.479116, 291.899896)"><g><path d="M 28.390625 -47.78125 C 36.492188 -47.78125 42.75 -45.707031 47.15625 -41.5625 C 51.570312 -37.425781 53.78125 -31.398438 53.78125 -23.484375 C 53.78125 -15.566406 51.570312 -9.535156 47.15625 -5.390625 C 42.75 -1.253906 36.492188 0.8125 28.390625 0.8125 C 20.296875 0.8125 14.050781 -1.242188 9.65625 -5.359375 C 5.269531 -9.472656 3.078125 -15.515625 3.078125 -23.484375 C 3.078125 -31.441406 5.269531 -37.476562 9.65625 -41.59375 C 14.050781 -45.71875 20.296875 -47.78125 28.390625 -47.78125 Z M 28.390625 -36.515625 C 25.160156 -36.515625 22.703125 -35.535156 21.015625 -33.578125 C 19.335938 -31.617188 18.5 -28.976562 18.5 -25.65625 L 18.5 -21.296875 C 18.5 -17.972656 19.335938 -15.332031 21.015625 -13.375 C 22.703125 -11.414062 25.160156 -10.4375 28.390625 -10.4375 C 31.617188 -10.4375 34.085938 -11.414062 35.796875 -13.375 C 37.503906 -15.332031 38.359375 -17.972656 38.359375 -21.296875 L 38.359375 -25.65625 C 38.359375 -28.976562 37.503906 -31.617188 35.796875 -33.578125 C 34.085938 -35.535156 31.617188 -36.515625 28.390625 -36.515625 Z M 28.390625 -36.515625 "/></g></g></g></svg>